<svg version="1.1" id="Layer_1" xmlns="http://www.w3.org/2000/svg" xmlns:xlink="http://www.w3.org/1999/xlink" x="0px" y="0px"
	 width="100%" viewBox="0 0 1024 1024" enable-background="new 0 0 1024 1024" xml:space="preserve">
<path fill="#000000" opacity="1.000000" stroke="none" 
	d="
M772.193909,804.245972 
	C786.073242,773.392395 789.527893,741.224304 787.732483,708.215820 
	C786.045837,677.207642 778.247375,647.960815 760.713928,622.079468 
	C734.610474,583.547974 698.207397,561.726135 651.708862,557.025146 
	C645.881714,556.436035 640.073730,556.377014 634.245789,556.375671 
	C521.084167,556.349548 407.922516,556.369324 294.761200,556.177734 
	C289.275970,556.168396 286.494110,557.644653 284.430054,562.881653 
	C273.744781,589.993164 261.464569,616.484558 251.850067,644.005432 
	C241.198685,674.494263 236.212738,706.032227 238.525681,738.336914 
	C240.001221,758.945557 244.544006,778.857727 257.976379,795.591858 
	C267.400024,807.331909 279.835632,813.189270 294.583984,814.662476 
	C296.617188,814.865540 299.235443,814.165344 299.282135,817.585510 
	C299.332336,821.260681 296.528961,820.824951 294.321564,820.832458 
	C270.989502,820.911804 247.657211,820.938049 224.324966,820.938171 
	C180.493607,820.938354 136.662262,820.911621 92.830902,820.896240 
	C91.997612,820.895935 91.154488,820.980835 90.332916,820.883301 
	C88.164856,820.625549 85.309578,821.486084 84.895126,818.023193 
	C84.483955,814.587585 87.325462,814.531494 89.479744,813.966797 
	C92.374878,813.208008 95.324821,812.660583 98.243912,811.990540 
	C131.806900,804.286682 158.916489,786.180725 181.306061,760.460999 
	C204.471664,733.849854 220.471466,702.988586 233.880737,670.714539 
	C261.169830,605.033691 288.129059,539.215759 315.203796,473.445953 
	C344.559570,402.135284 373.885315,330.812286 403.237732,259.500244 
	C416.994354,226.078430 430.823334,192.686264 444.498749,159.231277 
	C445.971069,155.629456 447.563019,153.553146 451.993317,153.565399 
	C456.390167,153.577560 457.598145,155.984131 458.914307,159.263947 
	C481.801361,216.298889 504.730316,273.317017 527.684692,330.324921 
	C548.335571,381.612000 569.028259,432.882202 589.703125,484.159637 
	C590.194641,485.378723 590.901184,486.546906 590.572754,488.082397 
	C589.034363,489.774780 586.907654,489.132843 585.019165,489.135895 
	C558.520386,489.178741 532.020874,489.066498 505.523376,489.249451 
	C501.127777,489.279816 499.089539,487.705780 497.476685,483.699432 
	C468.993896,412.948578 440.368225,342.255280 411.762878,271.553772 
	C410.768005,269.094818 409.664185,266.679901 407.997437,262.825134 
	C368.400879,359.097412 329.277344,454.219574 290.119781,549.424438 
	C293.008789,550.635681 295.357758,550.044006 297.632050,550.044434 
	C398.794220,550.064575 499.956421,549.979614 601.118469,550.071533 
	C623.903809,550.092224 645.928101,546.767883 666.691345,537.024414 
	C696.737549,522.924744 716.773560,499.343842 727.227051,468.478668 
	C743.990295,418.983307 745.688904,368.535919 728.406006,318.940125 
	C710.282959,266.933350 672.627075,236.387192 618.191345,227.662231 
	C598.259033,224.467499 577.924561,226.659668 557.775269,226.308258 
	C556.442444,226.285004 555.108643,226.310822 553.776062,226.281097 
	C551.973633,226.240875 551.020569,225.317291 550.974487,223.495468 
	C550.930176,221.746948 551.696899,220.566681 553.476379,220.350449 
	C555.123657,220.150253 556.795288,220.060211 558.455444,220.068420 
	C586.613403,220.207581 614.811462,219.049576 642.920044,220.851013 
	C690.726685,223.914886 736.039856,235.484161 775.592957,263.951202 
	C810.026672,288.733765 830.598694,322.238373 836.395691,364.441925 
	C841.694946,403.022583 836.028076,439.522949 814.588379,472.702057 
	C797.799622,498.683624 774.037292,516.543030 746.492493,529.718689 
	C727.339172,538.880371 707.163330,545.106079 686.442627,550.183228 
	C694.416931,551.025818 702.417358,551.673767 710.361145,552.743225 
	C754.886719,558.737610 796.355347,572.560425 831.558350,601.549072 
	C863.201111,627.605896 881.765320,661.037231 886.375977,701.938049 
	C890.098999,734.964478 886.043030,766.748474 870.406250,796.484619 
	C856.093018,823.703674 834.522583,843.873474 808.101135,859.004333 
	C777.284363,876.652222 743.753479,885.935852 708.724854,890.397827 
	C690.518372,892.717041 672.248413,893.422546 653.904175,893.351440 
	C613.073181,893.193115 572.241333,893.287964 531.409790,893.275085 
	C520.719971,893.271729 519.985168,892.317261 522.275208,881.205078 
	C522.875061,881.264771 523.566956,881.173279 524.114990,881.411926 
	C533.769531,885.617004 543.936401,886.943359 554.360840,886.934692 
	C584.692688,886.909485 615.061340,887.862488 645.348450,886.692505 
	C703.513306,884.445618 746.130859,857.148804 772.193909,804.245972 
z"/>
</svg>